<?xml version="1.0" encoding="iso-8859-1"?>
<!-- Generator: Adobe Illustrator 19.0.0, SVG Export Plug-In . SVG Version: 6.00 Build 0)  -->
<svg version="1.1" id="Layer_1" xmlns="http://www.w3.org/2000/svg" xmlns:xlink="http://www.w3.org/1999/xlink" x="0px" y="0px"
	 viewBox="0 0 460 460" style="enable-background:new 0 0 460 460;" xml:space="preserve">
<g id="XMLID_2820_">
	<path id="XMLID_1306_" style="fill:#D6A461;" d="M100.012,250c24.592,0,41.957,24.093,34.181,47.423L84.558,446.325
		C81.836,454.491,74.193,460,65.585,460H50H30H20c-11.046,0-20-8.954-20-20l0,0c0-16.569,13.431-30,30-30l0,0
		c9.953,0,18.79-6.369,21.937-15.811L100,250H100.012z"/>
	<path id="XMLID_1487_" style="fill:#AD7B49;" d="M65.585,460H50H30H20c-11.046,0-20-8.954-20-20h86.667l-2.108,6.325
		C81.836,454.491,74.193,460,65.585,460z"/>
	<path id="XMLID_1263_" style="fill:#A96F37;" d="M460,384.264V410c0,27.614-22.386,50-50,50H190V360
		c0-20.438-12.264-38.006-29.833-45.758c-5.409-2.387-11.702,0.364-13.572,5.973l-42.037,126.11
		C101.836,454.491,94.193,460,85.585,460H70H50H40c-11.046,0-20-8.954-20-20c0-16.568,13.431-30,30-30l0,0
		c9.953,0,18.79-6.369,21.937-15.812l17.8-53.398C96.534,320.397,100,299.041,100,277.544v-85.215
		c0-49.235,49.484-83.085,95.371-65.24l120.854,46.999C402.905,207.796,460,291.26,460,384.264z"/>
	<path id="XMLID_1874_" style="fill:#996031;" d="M20,440h86.667l-2.108,6.325C101.836,454.491,94.193,460,85.585,460H70H50H40
		C28.954,460,20,451.046,20,440z"/>
	<path id="XMLID_1466_" style="fill:#8C5730;" d="M460,384.264V410c0,27.614-22.386,50-50,50H270h-90c-11.046,0-20-8.954-20-20l0,0
		c0-16.568,13.431-30,30-30h80v-50c0-49.706,40.294-90,90-90h68.901C448.837,303.91,460,343.153,460,384.264z"/>
	<path id="XMLID_1370_" style="fill:#7F4E2D;" d="M460,390v20c0,27.614-22.386,50-50,50H270h-38.923
		c-8.594-8.411-15.041-19.007-18.42-30.883C209.93,419.535,217.125,410,227.088,410H270v-50c0-10.371,1.757-20.331,4.986-29.602
		c1.243-3.569,5.788-4.525,8.398-1.792C293.671,339.38,300,353.963,300,370c0,11.046,8.954,20,20,20H460z"/>
	<path id="XMLID_1367_" style="fill:#B5773A;" d="M407.32,240h-57.817c-42.647,0-80.169,22.363-101.456,55.979
		C242.536,304.683,232.992,310,222.689,310l0,0c-20.447,0-34.886-20.032-28.42-39.43l3.694-11.083
		c1.83-5.489,2.009-11.305,0.642-16.769c-2.892-11.561-4.765-23.352-4.765-35.268v-3.366c0-10.323,2.406-20.503,7.028-29.733
		l0.064-0.127l18.745-37.489l96.051,37.354C352.171,188.259,383.381,211.228,407.32,240z"/>
	<path id="XMLID_1507_" style="fill:#D6A461;" d="M280,410h-50v-70c0-5.523,4.477-10,10-10l0,0c22.091,0,40,17.909,40,40V410z"/>
	<path id="XMLID_1307_" style="fill:#B5773A;" d="M460,410L460,410c0,27.614-22.386,50-50,50H280c-27.614,0-50-22.386-50-50l0,0v-50
		c0,27.614,22.386,50,50,50H460z"/>
	<path id="XMLID_1261_" style="fill:#996031;" d="M240,440c9.122,12.144,23.643,20,40.001,20h130c16.357,0,30.878-7.856,40.001-20
		H240z"/>
	<path id="XMLID_1139_" style="fill:#8C5730;" d="M211.084,176.103l18.102-35.787L100,90.656v149.862
		c1.803,0.082,3.609,0.138,5.42,0.138c21.955,0,43.432-6.031,62.108-17.441C186.204,211.806,201.266,195.514,211.084,176.103z"/>
	<path id="XMLID_1168_" style="fill:#B5773A;" d="M210,7.676v92.882c0,6.21-1.446,12.334-4.223,17.889l-21.18,42.36
		C169.522,190.956,138.708,210,105,210l0,0c-33.708,0-64.522-19.044-79.597-49.193l-21.18-42.36C1.446,112.892,0,106.768,0,100.558
		V7.676c0-4.731,4.281-8.463,9.181-7.533c1.023,0.194,1.987,0.635,2.853,1.213L70,40h70l57.966-38.644
		c0.867-0.578,1.83-1.019,2.853-1.213C205.719-0.787,210,2.944,210,7.676z"/>
	<path id="XMLID_1450_" style="fill:#8C5730;" d="M48,61.898L32.423,77.475c-6.3,6.3-17.071,1.838-17.071-7.071v-35.52
		c0-2.921,2.565-5.244,5.566-4.838c0.78,0.105,1.515,0.432,2.17,0.869l23.388,15.592C51.726,50.007,52.462,57.436,48,61.898z"/>
	<path id="XMLID_2267_" style="fill:#8C5730;" d="M189.01,30.046c-0.78,0.105-1.515,0.432-2.17,0.869l-23.388,15.592
		c-5.251,3.5-5.986,10.929-1.524,15.392l15.577,15.577c6.3,6.3,17.071,1.838,17.071-7.071v-35.52
		C194.576,31.963,192.011,29.64,189.01,30.046z"/>
	<path id="XMLID_1443_" style="fill:#E28759;" d="M120,130v45c0,8.284-6.716,15-15,15s-15-6.716-15-15v-45H120z"/>
	<path id="XMLID_2266_" style="fill:#D6A461;" d="M155,155L155,155c0,13.807-11.193,25-25,25s-25-11.193-25-25
		c0,13.807-11.193,25-25,25s-25-11.193-25-25l0,0c0-13.807,11.193-25,25-25h25h25C143.807,130,155,141.193,155,155z"/>
	<path id="XMLID_2259_" style="fill:#D6A461;" d="M70,120c8.284,0,15-6.716,15-15s-6.716-15-15-15s-15,6.716-15,15
		S61.716,120,70,120z"/>
	<path id="XMLID_2265_" style="fill:#D6A461;" d="M125,105c0,8.284,6.716,15,15,15s15-6.716,15-15s-6.716-15-15-15
		S125,96.716,125,105z"/>
	<path id="XMLID_918_" style="fill:#D6A461;" d="M100,70h10c16.569,0,30-13.432,30-30H70C70,56.568,83.431,70,100,70z"/>
	<path id="XMLID_1128_" style="fill:#F2A286;" d="M120,135c0,8.284-6.716,15-15,15s-15-6.716-15-15c0-1.756,0.317-3.434,0.872-5
		h28.256C119.683,131.566,120,133.244,120,135z"/>
	<path id="XMLID_1884_" style="fill:#281A13;" d="M75,105c0,2.761-2.239,5-5,5s-5-2.239-5-5s2.239-5,5-5S75,102.239,75,105z"/>
	<path id="XMLID_2256_" style="fill:#281A13;" d="M140,100c-2.761,0-5,2.239-5,5s2.239,5,5,5s5-2.239,5-5S142.761,100,140,100z"/>
</g>
<g>
</g>
<g>
</g>
<g>
</g>
<g>
</g>
<g>
</g>
<g>
</g>
<g>
</g>
<g>
</g>
<g>
</g>
<g>
</g>
<g>
</g>
<g>
</g>
<g>
</g>
<g>
</g>
<g>
</g>
</svg>
