<?xml version="1.0" encoding="iso-8859-1"?>
<!-- Generator: Adobe Illustrator 19.0.0, SVG Export Plug-In . SVG Version: 6.00 Build 0)  -->
<svg version="1.1" id="Layer_1" xmlns="http://www.w3.org/2000/svg" xmlns:xlink="http://www.w3.org/1999/xlink" x="0px" y="0px"
	 viewBox="0 0 460 460" style="enable-background:new 0 0 460 460;" xml:space="preserve">
<g id="XMLID_2661_">
	<path id="XMLID_1137_" style="fill:#8C7E2C;" d="M460,185v50v90c0,49.706-40.294,90-90,90s-90-40.294-90-90s40.294-90,90-90H200v10
		c0,11.046-8.954,20-20,20h-80c-5.523,0-10-4.477-10-10c0-11.046,8.954-20,20-20H21.538C9.643,235,0,225.357,0,213.461v-27.242
		c0-29.918,15.521-57.694,41.001-73.374l82.586-50.822C130.762,57.608,140,62.77,140,71.195v15.073
		C153.644,61.663,179.871,45,210,45h110C397.32,45,460,107.68,460,185z"/>
	<path id="XMLID_1344_" style="fill:#776D25;" d="M150,191.923V235H21.538C9.643,235,0,225.357,0,213.461v-21.538H150z"/>
	<path id="XMLID_1603_" style="fill:#776D25;" d="M460,185v50H140V86.268C153.644,61.663,179.871,45,210,45h110
		C397.32,45,460,107.68,460,185z"/>
	<path id="XMLID_2613_" style="fill:#5E541B;" d="M460,185v49.999c0,0,0,0.001-0.001,0.001H360h-40h-90h-30l-10-9.75
		c0-24.239-17.163-44.466-40-49.198C146.77,175.383,140,165,140,165v-30c0,0,0-0.001,0.001-0.001H150
		c19.737,0,37.797,7.153,51.742,19.005C217.408,167.319,237.077,175,257.636,175h2.509c29.983,0,58.253-14.702,74.844-39.676
		C351.123,111.039,378.722,95,410,95h17.23l0,0C447.677,119.336,460,150.727,460,185z"/>
	<path id="XMLID_1794_" style="fill:#9E9030;" d="M460,185v50v90c0,49.706-40.294,90-90,90s-90-40.294-90-90s40.294-90,90-90h-20
		h-80c-5.523,0-10-4.477-10-10c0-11.046,8.954-20,20-20h60c5.523,0,10-4.477,10-10v-10c0-33.137,26.863-60,60-60h36.519
		C455.159,143.186,460,163.527,460,185z"/>
	<path id="XMLID_1761_" style="fill:#9E9030;" d="M200,225v10h-60v-70C173.137,165,200,191.863,200,225z"/>
	<path id="XMLID_1774_" style="fill:#8C7E2C;" d="M460,235v90c0,49.706-40.294,90-90,90l0,0c-49.706,0-90-40.294-90-90l0,0
		c0-49.706,40.294-90,90-90H460z"/>
	<path id="XMLID_1776_" style="fill:#776D25;" d="M430,235v90c0,22.205-12.071,41.577-30,51.953v32.916
		c-9.384,3.319-19.479,5.131-30,5.131c-49.706,0-90-40.294-90-90s40.294-90,90-90h10h20L430,235L430,235z"/>
	<path id="XMLID_1771_" style="fill:#5E541B;" d="M400,376.953c-8.827,5.108-19.068,8.047-30,8.047c-33.137,0-60-26.863-60-60
		c0-33.137,26.863-60,60-60h30V376.953z"/>
	<path id="XMLID_1778_" style="fill:#494012;" d="M400,310v15c0,16.569-13.431,30-30,30s-30-13.431-30-30c0-16.569,13.431-30,30-30
		v15c0,8.284,6.716,15,15,15S400,318.284,400,310z"/>
	<path id="XMLID_2114_" style="fill:#3F3B20;" d="M75.385,191.923v0.769c0,5.523-4.477,10-10,10H0v-10.769H75.385z"/>
	<path id="XMLID_1571_" style="fill:#AF9C2E;" d="M75.385,143.461c0,8.922-7.232,16.154-16.154,16.154
		c-8.921,0-16.154-7.232-16.154-16.154c0-8.921,7.232-16.154,16.154-16.154C68.152,127.308,75.385,134.54,75.385,143.461z"/>
	<path id="XMLID_1760_" style="fill:#020005;" d="M64.615,143.461c0,2.974-2.411,5.385-5.385,5.385
		c-2.974,0-5.385-2.411-5.385-5.385s2.411-5.385,5.385-5.385C62.205,138.077,64.615,140.488,64.615,143.461z"/>
</g>
<g>
</g>
<g>
</g>
<g>
</g>
<g>
</g>
<g>
</g>
<g>
</g>
<g>
</g>
<g>
</g>
<g>
</g>
<g>
</g>
<g>
</g>
<g>
</g>
<g>
</g>
<g>
</g>
<g>
</g>
</svg>
