<?xml version="1.0" encoding="iso-8859-1"?>
<!-- Generator: Adobe Illustrator 19.0.0, SVG Export Plug-In . SVG Version: 6.00 Build 0)  -->
<svg version="1.1" id="Layer_1" xmlns="http://www.w3.org/2000/svg" xmlns:xlink="http://www.w3.org/1999/xlink" x="0px" y="0px"
	 viewBox="0 0 460 460" style="enable-background:new 0 0 460 460;" xml:space="preserve">
<g id="XMLID_2439_">
	<path id="XMLID_877_" style="fill:#8C806F;" d="M105,50v10v10v40H95V75.799c0-4.687-3.255-8.745-7.831-9.762L24.762,52.169
		C19.058,50.902,15,45.843,15,40V0c5.523,0,10,4.477,10,10v24.201c0,4.687,3.255,8.745,7.831,9.762L45,46.667V10
		c5.523,0,10,4.477,10,10v20.867c0,4.687,3.255,8.745,7.831,9.762l20,4.444C89.076,56.461,95,51.709,95,45.312V40
		C100.523,40,105,44.477,105,50z"/>
	<path id="XMLID_879_" style="fill:#8C806F;" d="M205,10v24.201c0,4.687-3.255,8.745-7.831,9.762L185,46.667V10
		c-5.523,0-10,4.477-10,10v20.867c0,4.687-3.255,8.745-7.831,9.762l-20,4.444C140.924,56.461,135,51.709,135,45.312V40
		c-5.523,0-10,4.477-10,10v10v10v40h10V75.799c0-4.687,3.255-8.745,7.831-9.762l62.407-13.868C210.942,50.902,215,45.843,215,40V0
		C209.477,0,205,4.477,205,10z"/>
	<path id="XMLID_866_" style="fill:#B08A60;" d="M445,240v10c0,16.569-13.431,30-30,30l0,0c-7.977,13.96-18.179,26.183-30,36.356
		V340c0,5.609-1.541,10.858-4.221,15.347c-6.246,10.46,0.42,23.955,12.586,24.609c0.542,0.029,1.087,0.044,1.635,0.044
		c4.92,0,8.394,4.82,6.838,9.487L385,440v10c0,5.523-4.477,10-10,10h-20v-10c0-5.523,4.477-10,10-10l4.501-40.512
		C355.56,396.904,345,384.689,345,370v-1.714c-9.684-3.424-17.069-11.682-19.292-21.871c-10.155,2.351-20.654,3.585-31.331,3.585
		H175c-0.571,0-1.14-0.012-1.709-0.022c-1.919,5.434-5.355,10.151-9.804,13.639L155,440v10c0,5.523-4.477,10-10,10h-20v-10
		c0-5.523,4.477-10,10-10l-8.487-76.382C119.507,358.126,115,349.592,115,340v-9.996C90.712,311.76,75,282.716,75,250v-30v-25.012
		c0-1.664,0.377-8.299,0.542-9.95L82.046,120H65c-11.046,0-20-8.954-20-20V90v-2.5c0-4.142,3.358-7.5,7.5-7.5
		c1.623,0,3.202,0.526,4.5,1.5l30.651,22.989c6.01-8.809,16.124-14.512,27.465-14.489c11.21,0.023,21.14,5.793,27.144,14.555
		L173,81.5c1.298-0.974,2.877-1.5,4.5-1.5c4.142,0,7.5,3.358,7.5,7.5V90v10c0,11.046-8.954,20-20,20h-16.967
		c0.021,0.181,0.049,0.361,0.067,0.543l6.449,64.494c0.235,2.346,0.45,9.019,0.45,9.95C155,208.802,166.198,220,180.012,220H415h10
		C436.046,220,445,228.954,445,240z"/>
	<path id="XMLID_1652_" style="fill:#967351;" d="M57.424,92.167c-2.071,0-3.75,1.679-3.75,3.75v1.25v5c0,5.523,4.477,10,10,10
		h8.523l0.007-0.074c0.285-2.845,1.28-5.46,2.795-7.681L59.674,92.917C59.025,92.43,58.236,92.167,57.424,92.167z"/>
	<path id="XMLID_1654_" style="fill:#967351;" d="M172.576,92.167c-0.811,0-1.601,0.263-2.25,0.75L155,104.411
		c1.516,2.221,2.511,4.836,2.795,7.681l0.007,0.074h8.523c5.523,0,10-4.477,10-10v-5v-1.25
		C176.326,93.846,174.647,92.167,172.576,92.167z"/>
	<path id="XMLID_868_" style="fill:#4F3B2E;" d="M95,290h60v50c0,9.592-4.507,18.126-11.513,23.618L135,440v10
		c0,5.523-4.477,10-10,10h-20v-10c0-5.523,4.477-10,10-10l-8.487-76.382C99.507,358.126,95,349.592,95,340V290z"/>
	<path id="XMLID_2309_" style="fill:#4F3B2E;" d="M375,380L375,380c-0.549,0-1.094-0.015-1.635-0.044
		c-12.166-0.654-18.832-14.149-12.586-24.609c2.68-4.489,4.221-9.738,4.221-15.347v-50h-60v50c0,13.061,8.35,24.167,20,28.286V370
		c0,14.689,10.56,26.904,24.501,29.488L345,440c-5.523,0-10,4.477-10,10v10h20c5.523,0,10-4.477,10-10v-10l16.838-50.513
		C383.394,384.82,379.92,380,375,380z"/>
	<path id="XMLID_881_" style="fill:#3F322A;" d="M345,440c-5.523,0-10,4.477-10,10v10h20c5.523,0,10-4.477,10-10v-10H345z"/>
	<path id="XMLID_2276_" style="fill:#594638;" d="M365,440c-5.523,0-10,4.477-10,10v10h20c5.523,0,10-4.477,10-10v-10H365z"/>
	<path id="XMLID_2307_" style="fill:#3F322A;" d="M115,440h20v10c0,5.523-4.477,10-10,10h-20v-10C105,444.477,109.477,440,115,440z"
		/>
	<path id="XMLID_883_" style="fill:#594638;" d="M135,440h20v10c0,5.523-4.477,10-10,10h-20v-10C125,444.477,129.477,440,135,440z"
		/>
	<path id="XMLID_2416_" style="fill:#967351;" d="M140,237.5H90l15.083-87.5h0.047v-20h19.953v20h-0.035L140,237.5z"/>
	<path id="XMLID_880_" style="fill:#7E5D41;" d="M445,240v10c0,16.569-13.431,30-30,30l0,0c-7.977,13.96-18.179,26.183-30,36.356
		V340c0,5.609-1.541,10.858-4.221,15.347c-6.246,10.46,0.42,23.955,12.586,24.609c0.542,0.029,1.087,0.044,1.635,0.044
		c4.92,0,8.394,4.82,6.838,9.487L385,440v10c0,5.523-4.477,10-10,10h-20v-10c0-5.523,4.477-10,10-10l4.501-40.512
		C355.56,396.904,345,384.689,345,370v-1.714c-9.684-3.424-17.069-11.682-19.292-21.871c-10.155,2.351-20.654,3.585-31.331,3.585
		H175c-0.571,0-1.14-0.012-1.709-0.022c-1.919,5.434-5.355,10.151-9.804,13.639L155,440v10c0,5.523-4.477,10-10,10h-20v-10
		c0-5.523,4.477-10,10-10l-8.487-76.382C119.507,358.126,115,349.592,115,340v-9.996C90.712,311.76,75,282.716,75,250v-30v-25.012
		c0-0.543,0.041-1.618,0.1-2.874c6.047,15.945,21.113,28.306,39.946,31.849c18.771-3.532,33.795-15.825,39.881-31.694
		c0.046,1.328,0.073,2.389,0.073,2.72C155,208.802,166.198,220,180.012,220H415h10C436.046,220,445,228.954,445,240z
		 M154.55,185.037c0.035,0.354,0.055,0.71,0.087,1.065C154.608,185.692,154.579,185.331,154.55,185.037z M75.448,186.201
		c0.034-0.388,0.056-0.776,0.095-1.164C75.516,185.305,75.483,185.713,75.448,186.201z"/>
	<path id="XMLID_878_" style="fill:#B08A60;" d="M325,340c0,2.204,0.256,4.346,0.708,6.415c-10.155,2.351-20.654,3.585-31.331,3.585
		H175c-0.571,0-1.14-0.012-1.709-0.022C174.394,346.857,175,343.5,175,340v-7.942c0-19.501,18.132-33.867,37.143-29.524
		C233.275,307.362,256.137,310,280,310c4.572,0,9.107-0.097,13.6-0.289C310.751,308.982,325,322.832,325,340L325,340z"/>
	<path id="XMLID_1694_" style="fill:#B08A60;" d="M415,241.714V280c7.685,0,14.692-2.893,20-7.645V270
		C435,256.939,426.65,245.833,415,241.714z"/>
	<path id="XMLID_885_" style="fill:#D1AF79;" d="M125.083,150h-20L92.342,99.053c5.978-5.643,14.03-9.071,22.823-9.053
		c8.72,0.018,16.66,3.517,22.586,9.192L125.083,150z"/>
	<path id="XMLID_871_" style="fill:#594638;" d="M125.046,145v5c0,5.523-4.477,10-10,10s-10-4.477-10-10v-5c0-2.761,2.239-5,5-5h10
		C122.807,140,125.046,142.239,125.046,145z"/>
	<path id="XMLID_1651_" style="fill:#3F322A;" d="M115,160c5.523,0,10-4.477,10-10h-20C105,155.523,109.477,160,115,160z"/>
	<path id="XMLID_1446_" style="fill:#3F322A;" d="M105,130c-5.523,0-10-4.477-10-10h10V130z"/>
	<path id="XMLID_1649_" style="fill:#3F322A;" d="M125,120v10c5.523,0,10-4.477,10-10H125z"/>
</g>
<g>
</g>
<g>
</g>
<g>
</g>
<g>
</g>
<g>
</g>
<g>
</g>
<g>
</g>
<g>
</g>
<g>
</g>
<g>
</g>
<g>
</g>
<g>
</g>
<g>
</g>
<g>
</g>
<g>
</g>
</svg>
