<?xml version="1.0" encoding="iso-8859-1"?>
<!-- Generator: Adobe Illustrator 19.0.0, SVG Export Plug-In . SVG Version: 6.00 Build 0)  -->
<svg version="1.1" id="Layer_1" xmlns="http://www.w3.org/2000/svg" xmlns:xlink="http://www.w3.org/1999/xlink" x="0px" y="0px"
	 viewBox="0 0 460 460" style="enable-background:new 0 0 460 460;" xml:space="preserve">
<g id="XMLID_2848_">
	<path id="XMLID_27_" style="fill:#685345;" d="M460,180h-30v-10h20C455.523,170,460,174.477,460,180z"/>
	<path id="XMLID_2342_" style="fill:#85705E;" d="M440,180v70v10v10v3.5c0,10.703-3.513,21.11-10,29.624
		c-2.817,4.244-6.203,8.022-10,11.367V450c0,5.523-4.477,10-10,10h-40h-1h-9h-20h-5c-2.761,0-5-2.239-5-5v-25
		c0-5.523,4.477-10,10-10v-80c0-5.523-4.477-10-10-10h-50h-10h-20v48.132V390v30v29v1c0,5.523-4.477,10-10,10h-1h-29h-5
		c-0.73,0-1.418-0.165-2.043-0.445C202.023,459.844,201.03,460,200,460h-1h-29h-5c-2.761,0-5-2.239-5-5v-25c0-5.523,4.477-10,10-10
		v-90V150h23.078H250h60c0-5.523,29.102-10,65-10c1.684,0,3.348,0.013,5,0.032V140h20C422.091,140,440,157.909,440,180z"/>
	<path id="XMLID_798_" style="fill:#85705E;" d="M450,170h-10c5.523,0,10,4.477,10,10v115c0,2.761,2.239,5,5,5s5-2.239,5-5V180
		C460,174.477,455.523,170,450,170z"/>
	<path id="XMLID_2337_" style="fill:#685345;" d="M455,290c-2.761,0-5,2.239-5,5v10c0,2.761,2.239,5,5,5s5-2.239,5-5v-10
		C460,292.239,457.761,290,455,290z"/>
	<path id="XMLID_2341_" style="fill:#685345;" d="M170,454v6h-5c-2.761,0-5-2.239-5-5v-5h6C168.209,450,170,451.791,170,454z"/>
	<path id="XMLID_2340_" style="fill:#685345;" d="M210,370v80c0,4.493-2.964,8.293-7.043,9.555c0.625,0.28,1.313,0.445,2.043,0.445
		h5h29h1c5.523,0,10-4.477,10-10v-1V330C227.909,330,210,347.909,210,370z"/>
	<path id="XMLID_2339_" style="fill:#685345;" d="M336,450h-6v5c0,2.761,2.239,5,5,5h5v-6C340,451.791,338.209,450,336,450z"/>
	<path id="XMLID_2338_" style="fill:#685345;" d="M405.218,324.463C389.817,332.302,380,347.986,380,365.267v12.865V420v10v19v1
		c0,4.493-2.964,8.293-7.043,9.555C372.023,459.844,371.03,460,370,460h40c5.523,0,10-4.477,10-10V314.491
		c-4.331,3.816-9.198,7.067-14.393,9.772C405.477,324.331,405.348,324.397,405.218,324.463z"/>
	<path id="XMLID_783_" style="fill:#685345;" d="M310,150h-60h-56.922H170v86.355l40,6.154v2.472
		c0,19.31,15.709,35.019,35.019,35.019c11.166,0,21.752-5.391,28.321-14.421l74.012-101.766c5.155-7.088,8.407-15.122,9.708-23.423
		C329.89,141.587,310,145.435,310,150z"/>
	<path id="XMLID_308_" style="fill:#85705E;" d="M331.177,152.049l-74.012,101.766c-4.588,6.309-13.628,8.435-21.133,3.331
		c-4.004-2.723-6.098-7.402-6.034-12.244c0.147-11.205-7.98-20.779-19.025-22.478l-106.387-16.367
		C96.114,204.753,91.039,198.19,90,190v-3.453c0-0.011-0.001-0.022-0.001-0.033L90,186.496V185c0-2.761,2.239-5,5-5h10
		c2.923,0,5.261-2.508,4.977-5.491c-0.248-2.6-2.58-4.509-5.192-4.509H85.666c-3.13,0-5.666-2.537-5.666-5.667l0,0v-2.737v-0.002
		c-0.044-0.877-0.798-1.594-1.676-1.594H60H50c-16.569,0-30-13.431-30-30v-5.652V120V45c0-8.284-6.716-15-15-15
		c-2.761,0-5-2.239-5-5l0.13-0.232C3.567,18.647,3.535,11.171,0.046,5.08L0,5c0-2.762,2.239-5,5-5h15c16.568,0,30,13.432,30,30l0,0
		v50v19.657c0,5.16,4.186,9.989,9.336,10.322c2.224,0.144,4.305-0.44,6.027-1.537C74.587,102.57,85.533,100,96.467,100H130
		l2.424-2.425C143.677,86.322,158.939,80,174.853,80h34.132h10.508H220c1.656,0,3.218,0.402,4.593,1.115
		C236.817,87.448,250.652,90,264.419,90h35.234c12.879,0,24.652,7.276,30.412,18.795l4.026,8.051
		C339.769,128.204,338.646,141.779,331.177,152.049z"/>
	<path id="XMLID_2336_" style="fill:#968174;" d="M306.619,123.238l-3.018-6.036c-2.207-4.414-6.718-7.202-11.652-7.202H235
		c-2.761,0-5,2.239-5,5v91.972c0,7.195,5.833,13.028,13.028,13.028c4.356,0,8.424-2.177,10.84-5.801l51.939-77.908
		C308.4,132.4,308.71,127.419,306.619,123.238z"/>
	<path id="XMLID_462_" style="fill:#725B4E;" d="M257.971,129.369l-15.944,87.693c-0.194,1.064-0.56,1.983-1.052,2.76
		c-6.217-0.987-10.975-6.356-10.975-12.851V115c0-2.761,2.239-5,5-5h18.417C257.387,115.308,259.274,122.205,257.971,129.369z"/>
	<path id="XMLID_1091_" style="fill:#C98A81;" d="M15,15c0,6.2-3.764,11.516-9.13,13.8C3.172,29.948,0.037,27.996,0,25.063
		C0,25.042,0,25.021,0,25l0.118-0.21C3.562,18.66,3.532,11.172,0.04,5.07L0,5V4.937C0.037,2.004,3.172,0.052,5.87,1.2
		C11.236,3.484,15,8.8,15,15z"/>
	<path id="XMLID_2335_" style="fill:#C98A81;" d="M109.838,176.25c-0.556,2.155-2.508,3.75-4.837,3.75h-10c-2.761,0-5,2.239-5,5
		v1.496L90,186.514c0,0.011,0.001,0.022,0.001,0.033V190h10c5.523,0,10-4.477,10-10v-3.75H109.838z"/>
	<path id="XMLID_519_" style="fill:#B7ABA5;" d="M90,160.3v9.7h-6.609l-60.173-4.806C21.405,165.05,20,163.373,20,161.352
		c0-2.127,1.552-3.852,3.467-3.852H87.2C88.746,157.5,90,158.753,90,160.3z"/>
	<path id="XMLID_509_" style="fill:#CEC4C0;" d="M90,160.3c0,2.596-2.104,4.7-4.7,4.7h-1.909l-60.173-4.806
		c-0.955-0.076-1.79-0.584-2.373-1.337c0.636-0.824,1.568-1.357,2.621-1.357H87.2C88.746,157.5,90,158.753,90,160.3z"/>
	<path id="XMLID_804_" style="fill:#968174;" d="M170,125c0,8.284-6.716,15-15,15s-15-6.716-15-15s6.716-15,15-15
		S170,116.716,170,125z"/>
	<path id="XMLID_975_" style="fill:#3A312A;" d="M160,125c0,2.761-2.239,5-5,5s-5-2.239-5-5s2.239-5,5-5S160,122.239,160,125z"/>
</g>
<g>
</g>
<g>
</g>
<g>
</g>
<g>
</g>
<g>
</g>
<g>
</g>
<g>
</g>
<g>
</g>
<g>
</g>
<g>
</g>
<g>
</g>
<g>
</g>
<g>
</g>
<g>
</g>
<g>
</g>
</svg>
