<?xml version="1.0" encoding="iso-8859-1"?>
<!-- Generator: Adobe Illustrator 19.0.0, SVG Export Plug-In . SVG Version: 6.00 Build 0)  -->
<svg version="1.1" id="Layer_1" xmlns="http://www.w3.org/2000/svg" xmlns:xlink="http://www.w3.org/1999/xlink" x="0px" y="0px"
	 viewBox="0 0 460 460" style="enable-background:new 0 0 460 460;" xml:space="preserve">
<g id="XMLID_2602_">
	<path id="XMLID_884_" style="fill:#DDC99D;" d="M435.12,290v10v30v21.906c0,9.148-6.849,16.971-15.954,17.886
		c-0.058,0.006-0.116,0.012-0.175,0.017l-12.574,81.711c-0.751,4.878-4.949,8.479-9.886,8.479h-11.424l-13.879-90.19
		c-3.98-0.383-7.783-1.362-11.335-2.827l-15.495,84.538c-0.751,4.878-4.949,8.479-9.886,8.479h-11.424l-12.423-93.155
		c-10.403-4.778-18.116-14.576-19.827-26.544l-1.473-10.3h-79.452L187.64,451.521c-0.751,4.878-4.949,8.479-9.886,8.479H166.33
		l-13.285-99.616l-16.704,91.136c-0.751,4.878-4.949,8.479-9.886,8.479h-11.424L87.024,250h0.001c-1.312-6.462-2.003-13.15-2.003-20
		v-40v-10c0-5.475-4.402-10.017-9.878-10c-16.76,0.051-31.131-10.2-37.136-24.777C34.188,135.952,25.032,130,15.003,130
		c-5.511,0-9.998-4.463-10.003-9.973C4.985,103.446,18.426,90,35.008,90h50.014h11.15c38.255,0,72.333,24.17,84.971,60.268
		l1.243,3.551c20.807,5.914,39.401,18.483,52.678,36.181h100.028C390.335,190,435.12,234.771,435.12,290z"/>
	<path id="XMLID_340_" style="fill:#594B38;" d="M425.242,230.006V230h-20.006v40h19.755h0.25H455v-10
		C455,243.515,441.699,230.141,425.242,230.006z"/>
	<path id="XMLID_2213_" style="fill:#3A322C;" d="M171.378,0c2.762,0,5.001,2.239,5.001,5l0,0c0,34.462-20.527,64.112-50.014,77.455
		V110H90.69V89.983C90.467,89.985,90.247,90,90.024,90l0,0C43.066,90,5,51.944,5,5l0,0c0-2.761,2.239-5,5.001-5h5.001
		c8.287,0,15.004,6.716,15.004,15v5c0,5.743,4.843,10.356,10.669,9.978c5.317-0.344,9.337-4.995,9.337-10.321V15
		c0-8.525,7.113-15.388,15.729-14.983c8.07,0.38,14.279,7.33,14.279,15.407V20c0,5.743,4.843,10.356,10.669,9.978
		c5.826,0.377,10.669-4.235,10.669-9.978v-5c0-8.525,7.113-15.388,15.729-14.983c8.07,0.38,14.279,7.33,14.279,15.407v4.234
		c0,5.326,4.02,9.977,9.337,10.321c5.826,0.377,10.669-4.235,10.669-9.978v-5c0-8.284,6.718-15,15.004-15L171.378,0L171.378,0z"/>
	<path id="XMLID_2200_" style="fill:#4C4238;" d="M90.69,29.978V70v19.983V110H55.014V82.455C25.527,69.112,5,39.462,5,5l0,0
		c0-2.761,2.239-5,5.002-5h5.001c8.287,0,15.004,6.716,15.004,15v5c0,5.743,4.843,10.356,10.669,9.978
		c5.317-0.344,9.337-4.995,9.337-10.321V15c0-8.525,7.113-15.388,15.729-14.983c8.07,0.38,14.279,7.33,14.279,15.406v4.576
		C80.021,25.743,84.864,30.356,90.69,29.978z"/>
	<path id="XMLID_1898_" style="fill:#6D5B41;" d="M435.12,290v10v30v21.906c0,9.148-6.849,16.971-15.954,17.886
		c-0.058,0.006-0.116,0.012-0.175,0.017l-12.574,81.711c-0.751,4.878-4.949,8.479-9.886,8.479h-11.424l-13.879-90.19
		c-3.98-0.383-7.783-1.362-11.335-2.827l-15.495,84.538c-0.751,4.878-4.949,8.479-9.886,8.479h-11.424l-12.423-93.155
		c-10.403-4.778-18.116-14.576-19.827-26.544l-1.473-10.3h-79.452L187.64,451.521c-0.751,4.878-4.949,8.479-9.886,8.479H166.33
		l-13.285-99.616l-16.704,91.136c-0.751,4.878-4.949,8.479-9.886,8.479h-11.424L87.024,250h0.001
		c-0.09-0.444-0.17-0.891-0.254-1.336c23.298-18.309,38.262-46.739,38.262-78.664v-20c0-11.046-8.957-20-20.005-20H15.003l0,0l0,0
		c-5.511,0-9.998-4.463-10.003-9.973C4.985,103.446,18.426,90,35.008,90h50.014h11.15c38.255,0,72.333,24.17,84.971,60.268
		l1.243,3.551c20.807,5.914,39.401,18.483,52.678,36.181h100.028C390.335,190,435.12,234.771,435.12,290z"/>
	<path id="XMLID_1906_" style="fill:#4C4238;" d="M125.033,455v5H95.025v-5c0-8.284,6.716-15,15-15h0.008
		C118.318,440,125.033,446.716,125.033,455z"/>
	<path id="XMLID_1930_" style="fill:#4C4238;" d="M380.108,440H380.1c-8.284,0-15,6.716-15,15v5h30.008v-5
		C395.108,446.716,388.393,440,380.108,440z"/>
	<path id="XMLID_909_" style="fill:#594B38;" d="M213.809,310l-25.938,141.521c-0.751,4.878-4.949,8.479-9.886,8.479H166.56
		l-13.285-99.616L162.51,310H213.809z"/>
	<path id="XMLID_1923_" style="fill:#3A322C;" d="M176.333,455v5h-30.008v-5c0-8.284,6.716-15,15-15h0.008
		C169.617,440,176.333,446.716,176.333,455z"/>
	<path id="XMLID_1897_" style="fill:#594B38;" d="M360.418,366.983l-15.495,84.538c-0.751,4.878-4.949,8.479-9.886,8.479h-11.424
		l-12.423-93.155c-10.403-4.778-18.116-14.576-19.827-26.544L285.604,300h16.671h23.723l6.779,30l1.726,7.638
		c2.664,11.788,10.382,21.361,20.555,26.661C356.765,365.324,358.559,366.217,360.418,366.983z"/>
	<path id="XMLID_1928_" style="fill:#3A322C;" d="M318.09,440h-0.008c-8.284,0-15,6.716-15,15v5h30.008v-5
		C333.09,446.716,326.374,440,318.09,440z"/>
	<path id="XMLID_1842_" style="fill:#493E31;" d="M325.7,301.007c-3.086-13.682-15.244-23.4-29.273-23.4H268.72v0.041h-77.831
		c-14.343,0-26.059,11.082-27.32,25.39c-0.002,0.016-0.004,0.033-0.007,0.049l-4.317,23.554c8.227,2.189,16.869,3.359,25.785,3.359
		h83.69h63.531l-6.456-28.568L325.7,301.007z"/>
	<path id="XMLID_1840_" style="fill:#493E31;" d="M130.703,110H110.69c-11.046,0-20-8.954-20-20l0,0h40.014c5.523,0,10,4.477,10,10
		l0,0C140.703,105.523,136.226,110,130.703,110z"/>
	<path id="XMLID_1832_" style="fill:#493E31;" d="M75.019,105c0,2.761,2.239,5,5.001,5s5.001-2.239,5.001-5s-2.239-5-5.001-5
		C77.259,100,75.019,102.239,75.019,105z"/>
	<path id="XMLID_4611_" style="fill:#3A322C;" d="M35.008,139.964C30.381,133.768,22.973,130,15.003,130l0,0
		c-5.511,0-9.998-4.463-10.003-9.973c-0.003-3.517,0.597-6.89,1.706-10.027h18.299c5.524,0,10.003,4.477,10.003,10V139.964z"/>
</g>
<g>
</g>
<g>
</g>
<g>
</g>
<g>
</g>
<g>
</g>
<g>
</g>
<g>
</g>
<g>
</g>
<g>
</g>
<g>
</g>
<g>
</g>
<g>
</g>
<g>
</g>
<g>
</g>
<g>
</g>
</svg>
