<?xml version="1.0" encoding="iso-8859-1"?>
<!-- Generator: Adobe Illustrator 19.0.0, SVG Export Plug-In . SVG Version: 6.00 Build 0)  -->
<svg version="1.1" id="Layer_1" xmlns="http://www.w3.org/2000/svg" xmlns:xlink="http://www.w3.org/1999/xlink" x="0px" y="0px"
	 viewBox="0 0 460 460" style="enable-background:new 0 0 460 460;" xml:space="preserve">
<g id="XMLID_2310_">
	<path id="XMLID_3218_" style="fill:#685F23;" d="M460,389.903L460,389.903C460,414.809,439.809,435,414.903,435H252.695
		c-14.277,0-27.711-6.76-36.217-18.226L8.88,136.968C3.113,129.196,0,119.775,0,110.097l0,0C0,85.191,20.191,65,45.097,65h127.231
		c11.361,0,22.303,4.288,30.639,12.007L405.039,264.11C440.08,296.556,460,342.147,460,389.903z"/>
	<path id="XMLID_3215_" style="fill:#847F2D;" d="M362.686,225c-21.494,0-42.78-4.318-62.536-12.785
		c-42.835-18.357-82.555-44.12-117.189-76.52l-66.322-62.044c-3.312-3.098-1.12-8.651,3.416-8.651h20.229
		c2.488-22.499,21.555-40,44.717-40c24.853,0,45,20.147,45,45c0,9.284-2.813,17.91-7.632,25.076L362.686,225z"/>
	<path id="XMLID_3223_" style="fill:#DDA62C;" d="M210,70c0,13.807-11.193,25-25,25s-25-11.193-25-25s11.193-25,25-25
		S210,56.193,210,70z"/>
	<path id="XMLID_3221_" style="fill:#D16F15;" d="M200,70c0,8.284-6.716,15-15,15s-15-6.716-15-15s6.716-15,15-15S200,61.716,200,70
		z"/>
	<path id="XMLID_3208_" style="fill:#444233;" d="M190,70v5h-5c-2.761,0-5-2.239-5-5v-5h5C187.761,65,190,67.239,190,70z"/>
	<path id="XMLID_3373_" style="fill:#C1B678;" d="M290,389.903L290,389.903c0,23.574-18.091,42.911-41.145,44.914
		c-12.819-1.095-24.639-7.613-32.378-18.043L8.88,136.968C3.113,129.196,0,119.775,0,110.097l0,0c0-17.16,9.586-32.08,23.693-39.701
		c3.331,1.793,6.454,4,9.274,6.611L235.039,264.11C270.08,296.556,290,342.147,290,389.903z"/>
	<path id="XMLID_3405_" style="fill:#443D1E;" d="M171.37,205L171.37,205c-19.286,0-37.862-7.279-52.013-20.382L20.993,93.539
		c-7.143-6.614-5.843-18.387,2.701-23.051c0.057-0.031,0.113-0.062,0.17-0.092c3.331,1.793,6.454,4,9.274,6.611L171.37,205z"/>
	<path id="XMLID_3224_" style="fill:#93864E;" d="M193.889,301.542l-27.37,47.896l-59.92-80.762l7.329-12.825
		c7.348-12.859,20.001-21.206,34.714-22.899c14.715-1.696,28.932,3.56,39.009,14.413
		C201.423,262.196,203.93,283.969,193.889,301.542z"/>
	<path id="XMLID_2132_" style="fill:#D16F15;" d="M60,405v30H15c-8.284,0-15-6.716-15-15s6.716-15,15-15H60z"/>
	<path id="XMLID_1010_" style="fill:#DDA62C;" d="M31.91,405H15c-8.284,0-15,6.716-15,15c0,1.756,0.317,3.434,0.872,5H15.73
		c8.746,0,16.741-4.941,20.652-12.764l0,0C38.044,408.912,35.627,405,31.91,405z"/>
	<path id="XMLID_2162_" style="fill:#847F2D;" d="M176.568,291.62l-70.415,123.226C99.031,427.309,85.778,435,71.423,435H34.636
		l96.701-169.226c8.721-15.261,29.742-17.681,41.703-4.801l0,0C180.789,269.319,182.218,281.732,176.568,291.62z"/>
	<path id="XMLID_1002_" style="fill:#AFA73F;" d="M168.517,257.085c-0.526,1.533-1.199,3.089-2.025,4.535L96.077,384.846
		C88.955,397.309,75.702,405,61.347,405h-9.644l79.558-139.226C138.977,252.27,156.338,248.777,168.517,257.085z"/>
	<path id="XMLID_2153_" style="fill:#D16F15;" d="M190,405v30H95c-8.284,0-15-6.716-15-15s6.716-15,15-15H190z"/>
	<path id="XMLID_1007_" style="fill:#DDA62C;" d="M116.382,412.236L116.382,412.236C112.471,420.059,104.475,425,95.73,425H80.872
		c-0.554-1.566-0.872-3.244-0.872-5c0-8.284,6.716-15,15-15h16.91C115.627,405,118.044,408.912,116.382,412.236z"/>
	<path id="XMLID_3413_" style="fill:#847F2D;" d="M460,375L460,375v15c0,24.853-20.147,45-45,45H120l0,0c0-33.137,26.863-60,60-60
		h80c-16.569,0-30-13.431-30-30l0,0c0-7.015,2.415-13.463,6.449-18.572l36.092-67.483C277.133,250.36,286.078,245,295.814,245l0,0
		c19.97,0,32.705,21.321,23.237,38.904l-8.806,16.355c-3.587,6.662,1.238,14.741,8.805,14.741H400C433.137,315,460,341.863,460,375z
		"/>
	<path id="XMLID_3445_" style="fill:#C1BA40;" d="M451.953,345H310h-9.464H300c-16.569,0-30-13.431-30-30l0,0
		c0-7.015,2.415-13.463,6.449-18.572l26.924-50.341c15.406,4.54,23.884,22.578,15.678,37.817l-8.806,16.355
		c-3.587,6.662,1.238,14.741,8.805,14.741H400C422.205,315,441.578,327.071,451.953,345z"/>
	<path id="XMLID_1004_" style="fill:#AFA73F;" d="M180,375L180,375c0,16.569,13.431,30,30,30h178.377
		c18.885,0,35.651-12.084,41.623-30H180z"/>
</g>
<g>
</g>
<g>
</g>
<g>
</g>
<g>
</g>
<g>
</g>
<g>
</g>
<g>
</g>
<g>
</g>
<g>
</g>
<g>
</g>
<g>
</g>
<g>
</g>
<g>
</g>
<g>
</g>
<g>
</g>
</svg>
