<?xml version="1.0" encoding="iso-8859-1"?>
<!-- Generator: Adobe Illustrator 19.0.0, SVG Export Plug-In . SVG Version: 6.00 Build 0)  -->
<svg version="1.1" id="Layer_1" xmlns="http://www.w3.org/2000/svg" xmlns:xlink="http://www.w3.org/1999/xlink" x="0px" y="0px"
	 viewBox="0 0 460 460" style="enable-background:new 0 0 460 460;" xml:space="preserve">
<g id="XMLID_2473_">
	<path id="XMLID_1293_" style="fill:#593E37;" d="M150,85v20h-20h-20V85c0-5.523,4.477-10,10-10s10,4.477,10,10
		c0-5.523,4.477-10,10-10S150,79.477,150,85z"/>
	<path id="XMLID_950_" style="fill:#593E37;" d="M430,265v80v20c0,2.761-0.56,5.392-1.572,7.785
		c-0.506,1.196-1.125,2.333-1.844,3.397c-0.359,0.532-0.744,1.046-1.151,1.54c-0.815,0.988-1.723,1.896-2.711,2.711
		C419.265,383.286,414.833,385,410,385h-20h-10c-1.471,0-2.864-0.326-4.122-0.896c-1.861,0.572-3.83,0.896-5.878,0.896h-20h-10
		c-5.523,0-10-4.477-10-10c0-13.061,8.349-24.167,20-28.286V265h40H430z"/>
	<path id="XMLID_1053_" style="fill:#6D4C41;" d="M390,265v81.714c-11.651,4.119-20,15.225-20,28.286l0,0c0,5.523,4.477,10,10,10h10
		h20c4.833,0,9.265-1.714,12.722-4.567c0.988-0.815,1.896-1.723,2.711-2.711c0.408-0.494,0.792-1.008,1.151-1.54
		c0.719-1.064,1.338-2.201,1.844-3.397C429.44,370.392,430,367.761,430,365v-20v-80H390z"/>
	<path id="XMLID_1241_" style="fill:#513732;" d="M350,265v50h80v-50H350z"/>
	<path id="XMLID_1240_" style="fill:#60423A;" d="M390,265v50h40v-50H390z"/>
	<path id="XMLID_1067_" style="fill:#593E37;" d="M230,265h40v80v20c0,2.761-0.56,5.392-1.572,7.785
		c-0.506,1.196-1.125,2.333-1.844,3.397c-0.359,0.532-0.744,1.046-1.151,1.54c-0.815,0.988-1.723,1.896-2.711,2.711
		C259.265,383.286,254.833,385,250,385h-20h-10c-1.471,0-2.864-0.326-4.122-0.896c-1.861,0.572-3.83,0.896-5.878,0.896h-20h-10
		c-5.523,0-10-4.477-10-10c0-13.061,8.349-24.167,20-28.286V265H230z"/>
	<path id="XMLID_1332_" style="fill:#6D4C41;" d="M230,265h40v80v20c0,2.761-0.56,5.392-1.572,7.785
		c-0.506,1.196-1.125,2.333-1.844,3.397c-0.359,0.532-0.744,1.046-1.151,1.54c-0.815,0.988-1.723,1.896-2.711,2.711
		C259.265,383.286,254.833,385,250,385h-20h-10c-5.523,0-10-4.477-10-10l0,0c0-13.061,8.349-24.167,20-28.286V265z"/>
	<path id="XMLID_928_" style="fill:#513732;" d="M190,265h80v50h-80V265z"/>
	<path id="XMLID_1239_" style="fill:#60423A;" d="M230,265h40v50h-40V265z"/>
	<path id="XMLID_1387_" style="fill:#6D4C41;" d="M460,165v60c0,38.66-31.34,70-70,70H220c-22.817,0-43.08-10.917-55.857-27.813
		c-11.197-14.807-28.828-22.937-47.378-22.221C116.18,244.989,115.591,245,115,245l0,0c-15.601,0-29.344-7.941-37.417-20H28.284
		C12.663,225,0,212.337,0,196.716l0,0c0-7.501,2.98-14.696,8.284-20L30,155v-10c0-5.523,4.477-10,10-10h10l28.284-28.284
		C85.786,99.214,95.96,95,106.569,95H150h240C428.66,95,460,126.34,460,165z"/>
	<path id="XMLID_1382_" style="fill:#926452;" d="M460,225L460,225v55c0,2.761-2.239,5-5,5c-7.071,0-12.983-4.898-14.568-11.483
		C427.697,286.752,409.817,295,390,295H220c-22.391,0-42.323-10.514-55.134-26.874c-11.592-14.804-29.292-23.898-48.08-23.161
		C116.193,244.988,115.598,245,115,245l0,0c-15.601,0-29.344-7.941-37.417-20H28.284C12.663,225,0,212.337,0,196.716l0,0
		c0-7.537,3.008-14.763,8.359-20.075C9.435,175.573,10.91,175,12.427,175h15.858h40.348c10.137,0,19.447,4.877,25.96,12.646
		C98.711,192.558,105.528,195,115,195l0,0c0.598,0,1.193-0.012,1.786-0.035c18.788-0.737,36.488,8.357,48.08,23.161
		C177.677,234.486,197.609,245,220,245h170c21.829,0,41.323-9.992,54.161-25.651c5.281-6.441,15.798-2.924,15.839,5.405
		C460,224.836,460,224.918,460,225z"/>
	<path id="XMLID_1394_" style="fill:#775146;" d="M150,85v10l-56.927,56.927C84.371,160.629,79.9,172.528,80,184.834
		c0,0.056,0,0.111,0,0.166c0,22.091-17.909,40-40,40H28.284C12.663,225,0,212.337,0,196.716c0-7.501,2.98-14.696,8.284-20L20,165
		l0,0l10-10v-10c0-5.523,4.477-10,10-10h10l28.284-28.284C85.786,99.214,95.96,95,106.568,95H130V85c0-5.523,4.477-10,10-10
		S150,79.477,150,85z"/>
	<path id="XMLID_1238_" style="fill:#593E37;" d="M100,120c0,2.761-2.239,5-5,5s-5-2.239-5-5s2.239-5,5-5S100,117.239,100,120z"/>
	<path id="XMLID_1237_" style="fill:#593E37;" d="M45,155h5v-5c0-2.761-2.239-5-5-5s-5,2.239-5,5S42.239,155,45,155z"/>
	<path id="XMLID_1236_" style="fill:#593E37;" d="M68.632,175H28.284H10l-1.716,1.716C2.98,182.02,0,189.214,0,196.716l0,0
		C0,212.337,12.663,225,28.284,225H40c22.091,0,40-17.909,40-40l0,0c0-0.055,0-0.11-0.001-0.166
		c-0.021-2.529,0.163-5.038,0.525-7.508C76.788,175.829,72.782,175,68.632,175z"/>
	<path id="XMLID_1227_" style="fill:#60423A;" d="M180,145c-5.523,0-10,4.477-10,10v118.973c5.742,5.863,12.502,10.724,20,14.287
		V155C190,149.477,185.523,145,180,145z"/>
	<path id="XMLID_1220_" style="fill:#875748;" d="M230,291.572V295h-10c-19.589,0-37.297-8.048-50-21.017
		c-1.817-1.855-3.531-3.81-5.134-5.857c-4.123-5.266-9.023-9.804-14.466-13.44c9.84-7.549,17.476-17.947,19.597-30.706
		c0.23,0.242,1.026,1.02,1.026,1.02c5.542,5.43,11.981,9.945,19.077,13.304C191.441,262.981,207.689,283.684,230,291.572z"/>
	<path id="XMLID_1235_" style="fill:#60423A;" d="M350,155v140h-20V155c0-5.523,4.477-10,10-10S350,149.477,350,155z"/>
	<path id="XMLID_1223_" style="fill:#875748;" d="M350,245h-0.202h-19.596H330c-3.819,25.351-24.677,45.399-50,49.303
		c3.203,0.449,6.471,0.697,9.798,0.697h40.404h19.596h40.404c3.327,0,6.595-0.248,9.798-0.697
		C374.677,290.399,353.819,270.351,350,245z"/>
	<path id="XMLID_1226_" style="fill:#875748;" d="M430,282.432c3.597-2.512,6.94-5.361,10-8.488v-24.271
		c0-1.718-2.035-2.65-3.314-1.504c-0.033,0.029-0.065,0.058-0.098,0.087c-4.146,3.701-6.588,8.939-6.588,14.496V282.432z"/>
</g>
<g>
</g>
<g>
</g>
<g>
</g>
<g>
</g>
<g>
</g>
<g>
</g>
<g>
</g>
<g>
</g>
<g>
</g>
<g>
</g>
<g>
</g>
<g>
</g>
<g>
</g>
<g>
</g>
<g>
</g>
</svg>
