<?xml version="1.0" encoding="iso-8859-1"?>
<!-- Generator: Adobe Illustrator 19.0.0, SVG Export Plug-In . SVG Version: 6.00 Build 0)  -->
<svg version="1.1" id="Layer_1" xmlns="http://www.w3.org/2000/svg" xmlns:xlink="http://www.w3.org/1999/xlink" x="0px" y="0px"
	 viewBox="0 0 460.001 460.001" style="enable-background:new 0 0 460.001 460.001;" xml:space="preserve">
<g id="XMLID_2647_">
	<path id="XMLID_1192_" style="fill:#EDE6E8;" d="M460,150.001v40c0,33.137-26.863,60-60,60h-33.292h-0.042h-3.333H360
		c0,44.183-35.817,80-80,80h-30c0,5.523-4.477,10-10,10v45.86c0,2.081,1.268,4.003,3.236,4.676c3.935,1.344,6.764,5.074,6.764,9.464
		s-2.829,8.12-6.764,9.465c-1.969,0.673-3.236,2.595-3.236,4.676v25.859v10c0,5.523-4.477,10-10,10h-10h-10h-10h-20h-20
		c0-11.046,8.954-20,20-20h10c5.523,0,10-4.477,10-10v-90c-5.523,0-10-4.477-10-10h-30c-44.183,0-80-35.817-80-80v-40v-50
		c0-5.523,4.477-10,10-10v-43.029c0-0.888-0.026-1.771-0.065-2.651c-0.059-1.32-0.155-2.633-0.3-3.934
		c-0.002-0.017-0.004-0.033-0.006-0.049c-2.35-20.94-15.706-39.158-35.166-48.15c-0.789-0.365-1.573-0.742-2.351-1.131L30,40.001H10
		c-5.523,0-10-4.477-10-10s4.477-10,10-10h20L52.112,8.945c11.864-5.932,24.956-8.996,38.223-8.944
		C101.25,0.045,110,9.086,110,20.001v130c5.523,0,10,4.477,10,10v10c0,22.091,17.909,40,40,40h200v-15.556v-0.003v-4.441v-22.222
		v-32.222c0-16.569,13.431-30,30-30h3.333v22.786c2.169-0.364,4.394-0.563,6.667-0.563h26.667v22.221H460z"/>
	<path id="XMLID_1686_" style="fill:#726B69;" d="M40,20.001v10v10H10c-5.523,0-10-4.477-10-10s4.477-10,10-10H40z"/>
	<path id="XMLID_2053_" style="fill:#544C4B;" d="M0,30.001h40v10H10C4.477,40.001,0,35.524,0,30.001z"/>
	<path id="XMLID_1632_" style="fill:#C98D8D;" d="M110,20.001v150H90v-63.029C90,83.3,75.957,62.118,54.467,52.19
		c-0.79-0.365-1.576-0.743-2.356-1.133L30,40.001v-20L52.112,8.945c11.864-5.932,24.956-8.996,38.223-8.944
		C101.25,0.045,110,9.086,110,20.001z"/>
	<path id="XMLID_1681_" style="fill:#E0A6A4;" d="M100,96.972v73.029H90v-63.029c0-23.674-14.047-44.854-35.537-54.784
		c-0.789-0.365-1.573-0.742-2.351-1.131L30,40.001v-10c6.576,0,13.062,1.531,18.944,4.472l13.167,6.583
		c0.779,0.389,1.562,0.766,2.351,1.131C85.953,52.118,100,73.298,100,96.972z"/>
	<path id="XMLID_1688_" style="fill:#C98D8D;" d="M250,400.001c0,4.39-2.829,8.12-6.764,9.465c-1.969,0.673-3.236,2.595-3.236,4.676
		v25.859v10c0,5.523-4.477,10-10,10h-10h-10h-10h-20h-20c0-11.046,8.954-20,20-20h10c5.523,0,10-4.477,10-10v-100h20h20v55.86
		c0,2.081,1.268,4.003,3.236,4.676C247.171,391.881,250,395.611,250,400.001z"/>
	<path id="XMLID_1752_" style="fill:#E0A6A4;" d="M223.236,390.536c-1.969-0.673-3.236-2.595-3.236-4.676v-55.859h-20v100
		c0,5.523-4.477,10-10,10h-10c-11.046,0-20,8.954-20,20l0,0h40h10c5.523,0,10-4.477,10-10v-10v-25.86
		c0-2.081,1.268-4.002,3.236-4.676c3.935-1.344,6.764-5.074,6.764-9.464S227.171,391.881,223.236,390.536z"/>
	<path id="XMLID_1698_" style="fill:#383433;" d="M250,310.001v20c0,5.523-4.477,10-10,10h-20c-5.523,0-10-4.477-10-10v-20H250z"/>
	<path id="XMLID_988_" style="fill:#E2D7DB;" d="M426.667,127.779v62.222c0,33.137-26.863,60-60,60H360h-60v-40h60v-42.222
		c0-22.091,17.909-40,40-40H426.667z"/>
	<path id="XMLID_990_" style="fill:#D3C9CD;" d="M426.667,150.001v40.042c0,33.114-26.844,59.958-59.958,59.958h-3.375H360v-55.556
		v-58.889c0-16.569,13.431-30,30-30h3.333v45.845c3.551-0.914,7.274-1.4,11.111-1.4H426.667z"/>
	<path id="XMLID_953_" style="fill:#C1B4B9;" d="M393.333,151.401v65.266c0,18.41-14.924,33.333-33.333,33.333h-40v-40h40v-15.558
		C360.001,173.734,374.165,156.335,393.333,151.401z"/>
	<path id="XMLID_2598_" style="fill:#726B69;" d="M360,210.001v40c0,44.183-35.817,80-80,80h-50c0,5.523-4.477,10-10,10h-20
		c-5.523,0-10-4.477-10-10h-30c-44.183,0-80-35.817-80-80v-40v-50c0-5.523,4.477-10,10-10h20c5.523,0,10,4.477,10,10v10
		c0,22.091,17.909,40,40,40h1.26c0,1.111,0.042,2.213,0.112,3.309c12.742,16.092,34.445,26.691,59.085,26.691h23.678
		c22.066,0,40.608-12.748,45.865-30H360z"/>
	<path id="XMLID_1693_" style="fill:#544C4B;" d="M360,210.001v40c0,44.183-35.817,80-80,80h-50c0,5.523-4.477,10-10,10h-20
		c-5.523,0-10-4.477-10-10h-30c-44.183,0-80-35.817-80-80v-40v-50c0-5.523,4.477-10,10-10h20c5.523,0,10,4.477,10,10v10v40
		c0,44.183,35.817,80,80,80h50c44.183,0,80-35.817,80-80H360z"/>
	<path id="XMLID_942_" style="fill:#C1B4B9;" d="M216.936,270.001h18.559c17.295,0,31.827-12.747,35.947-29.999v-0.001
		c0.625-2.615,1.01-5.333,1.129-8.126c0.027-0.621-12.571-21.874-12.571-21.874h-98.74
		C161.26,243.138,186.187,270.001,216.936,270.001z"/>
	<path id="XMLID_1455_" style="fill:#E2D7DB;" d="M272.611,210.001v20c0,0.665-0.017,1.326-0.047,1.983
		c-7.918,5.03-17.759,8.017-28.429,8.017h-23.678c-23.354,0-44.071-9.523-57.018-24.218c-1.4-1.589-2.173-3.644-2.178-5.761v-0.021
		H272.611z"/>
	<path id="XMLID_1748_" style="fill:#544C4B;" d="M75,10.001c-2.761,0-5,2.239-5,5s2.239,5,5,5s5-2.239,5-5S77.761,10.001,75,10.001
		z"/>
</g>
<g>
</g>
<g>
</g>
<g>
</g>
<g>
</g>
<g>
</g>
<g>
</g>
<g>
</g>
<g>
</g>
<g>
</g>
<g>
</g>
<g>
</g>
<g>
</g>
<g>
</g>
<g>
</g>
<g>
</g>
</svg>
