<?xml version="1.0" encoding="iso-8859-1"?>
<!-- Generator: Adobe Illustrator 19.0.0, SVG Export Plug-In . SVG Version: 6.00 Build 0)  -->
<svg version="1.1" id="Layer_1" xmlns="http://www.w3.org/2000/svg" xmlns:xlink="http://www.w3.org/1999/xlink" x="0px" y="0px"
	 viewBox="0 0 460.256 460.256" style="enable-background:new 0 0 460.256 460.256;" xml:space="preserve">
<g id="XMLID_2819_">
	<path id="XMLID_1346_" style="fill:#F2EDE0;" d="M319.776,460.128L319.776,460.128h-218.73L73.651,261.741
		c-0.747-5.412-5.379-9.444-10.848-9.444H49.536c-9.336,0-16.852-7.778-16.408-17.201c0.416-8.825,8.027-15.615,16.872-15.615h5.25
		c6.643,0,11.756-5.86,10.848-12.433L57.834,147.2c-1.803-13.06-7.239-25.353-15.689-35.48L3.207,65.049
		c-5.664-6.789-2.824-17.137,5.514-20.091l39.463-13.983c49.201-17.433,103.625,5.185,125.924,52.333l20.767,43.909l102.99,213.51
		C312.352,378.873,319.776,419.33,319.776,460.128z"/>
	<path id="XMLID_1433_" style="fill:#937B70;" d="M460.256,455.002c0,2.831-2.297,5.125-5.131,5.125H270.256V440.15l185.138,9.732
		C458.12,450.027,460.256,452.276,460.256,455.002z"/>
	<path id="XMLID_1423_" style="fill:#BC968A;" d="M450.686,449.636c-0.632,2.114-2.572,3.666-4.895,3.666H270.256v-13.151
		L450.686,449.636z"/>
	<path id="XMLID_1318_" style="fill:#937B70;" d="M44.061,230.42v10.938H13.398c-1.21,0-2.19,0.979-2.19,2.188v3.281
		c0,3.198-2.748,5.755-6.013,5.444c-2.847-0.271-4.938-2.822-4.938-5.679v-5.234c0-6.041,4.903-10.938,10.951-10.938L44.061,230.42
		L44.061,230.42z"/>
	<path id="XMLID_1362_" style="fill:#47382F;" d="M163.26,31.341l-17.513,17.767l-20.256-11.927l7.082-23.908
		c3.388-11.44,16.638-16.654,26.928-10.595C169.79,8.736,171.64,22.839,163.26,31.341z"/>
	<path id="XMLID_1327_" style="fill:#6D4E41;" d="M145.568,38.896l-6.303,6.395l-7.291-4.293l2.549-8.605
		c1.22-4.118,5.989-5.994,9.692-3.813S148.584,35.836,145.568,38.896z"/>
	<path id="XMLID_1359_" style="fill:#D8D1B5;" d="M319.776,460.128L319.776,460.128H197.377h-96.331l-14.025-101.57l-13.37-96.817
		c-0.747-5.412-5.378-9.444-10.848-9.444H49.536c-9.336,0-16.852-7.778-16.408-17.201c0.416-8.825,8.027-15.615,16.872-15.615h5.25
		c6.643,0,11.756-5.86,10.849-12.433L57.834,147.2c-1.803-13.06-7.239-25.353-15.689-35.48L3.208,65.049
		c-5.664-6.789-2.824-17.137,5.514-20.091l27.801-9.851l36.54,43.797c8.45,10.128,13.885,22.421,15.689,35.48l30.031,217.47
		c1.495,10.825,10.757,18.888,21.697,18.888h2.142c30.241,0,54.756,24.486,54.756,54.692l0,0c0,12.083,9.806,21.877,21.902,21.877
		h98.873C319.221,438.201,319.776,449.151,319.776,460.128z"/>
	<path id="XMLID_1313_" style="fill:#937B70;" d="M90.256,438.251v21.877h-85c-2.761,0-5-2.239-5-5v-1.877c0-8.284,6.716-15,15-15
		H90.256z"/>
	<path id="XMLID_1311_" style="fill:#8C6F64;" d="M90.256,450.139v9.988h-85c-2.761,0-5-2.236-5-4.994v-1.9
		c0-1.827,0.344-3.569,0.943-5.188c0.907,1.264,2.381,2.094,4.057,2.094L90.256,450.139L90.256,450.139z"/>
	<path id="XMLID_1815_" style="fill:#5D4B40;" d="M144.524,383.558h-27.609c-22.091,0-40,17.909-40,40v36.569h56.609
		c17.121,0,31-13.879,31-31v-25.569C164.524,392.513,155.569,383.558,144.524,383.558z"/>
	<path id="XMLID_2271_" style="fill:#725D52;" d="M133.264,406.94h-6.04c-14.894,0-26.969,12.074-26.969,26.968l0,0
		c0,3.862,3.13,6.992,6.992,6.992h15.029c9.93,0,17.979-8.05,17.979-17.979v-8.99C140.256,410.07,137.126,406.94,133.264,406.94z"/>
	<path id="XMLID_1813_" style="fill:#5D4B40;" d="M297.867,340.727L245.763,232.71c-22.526,14.629-37.434,39.973-37.434,68.81
		c0,45.309,36.773,82.038,82.134,82.038c6.857,0,13.513-0.852,19.88-2.434C307.034,367.438,302.885,353.941,297.867,340.727z"/>
	<path id="XMLID_1365_" style="fill:#725D52;" d="M276.586,354.66c-0.042,0-0.084,0-0.127,0c-27.936,0-50.582-22.62-50.582-50.523
		c0-12.762,4.741-24.413,12.557-33.302c4.559-5.185,12.98-3.926,15.979,2.291l26.606,55.157c1.728,4.551,3.29,9.157,4.686,13.807
		C287.564,348.279,283.056,354.644,276.586,354.66z"/>
	<path id="XMLID_1301_" style="fill:#5D4B40;" d="M194.876,127.217c8.391,17.396-4.299,37.572-23.63,37.572H78.039
		c-10.188,0-18.813-7.509-20.205-17.589c-1.803-13.06-7.239-25.353-15.689-35.48L3.207,65.049
		c-5.664-6.789-2.824-17.137,5.514-20.091l39.463-13.983c33.318-11.806,69.029-5.24,95.539,14.869l17.839-15.658
		c8.972-7.875,22.965-5.231,28.438,5.373s-0.489,23.522-12.116,26.253l-14.721,3.458c4.191,5.521,7.874,11.545,10.944,18.037
		L194.876,127.217z"/>
	<path id="XMLID_1300_" style="fill:#514036;" d="M95.712,164.79H78.039c-10.188,0-18.813-7.509-20.205-17.589
		c-1.089-7.882-3.509-15.481-7.108-22.497c-0.37-0.722-0.753-1.436-1.147-2.145c-0.578-1.038-1.178-2.064-1.809-3.073
		c-1.254-2.004-2.607-3.95-4.064-5.826c-0.004-0.005-0.008-0.011-0.012-0.016c-0.504-0.649-1.021-1.291-1.549-1.924L3.208,65.049
		c-3.186-3.819-3.681-8.764-2.021-12.885c0.185-0.458,0.396-0.906,0.633-1.341c0.474-0.87,1.051-1.688,1.727-2.435
		c1.35-1.491,3.091-2.692,5.176-3.431l27.801-9.851l36.54,43.797c8.45,10.128,13.885,22.421,15.689,35.48L95.712,164.79z"/>
	<path id="XMLID_1319_" style="fill:#937B70;" d="M55.012,104.628c0,3.021-2.452,5.469-5.476,5.469h-8.745l-9.126-10.938h17.871
		C52.56,99.159,55.012,101.608,55.012,104.628z"/>
	<path id="XMLID_1321_" style="fill:#463329;" d="M33.11,51.804v19.19c0,10.124-12.673,14.707-19.162,6.929L3.207,65.049
		c-5.664-6.789-2.824-17.137,5.514-20.091l9.775-3.464C25.625,38.969,33.11,44.25,33.11,51.804z"/>
	<path id="XMLID_1331_" style="fill:#B5836D;" d="M20.511,51.688v7.261c0,9.237-11.563,13.419-17.484,6.323l0,0
		c-5.808-6.962-2.896-17.574,5.655-20.603l1.084-0.384c5.124-1.816,10.688,1.853,10.744,7.283
		C20.511,51.608,20.511,51.648,20.511,51.688z"/>
	<path id="XMLID_1323_" style="fill:#CA9E87;" d="M11.207,51.228c0,3.021-2.452,5.469-5.476,5.469s-5.476-2.449-5.476-5.469
		s2.451-5.469,5.476-5.469C8.756,45.758,11.207,48.207,11.207,51.228z"/>
	<path id="XMLID_1328_" style="fill:#261E19;" d="M76.914,49.936c0,3.021-2.452,5.469-5.476,5.469c-3.024,0-5.476-2.448-5.476-5.469
		c0-3.021,2.451-5.469,5.476-5.469C74.463,44.466,76.914,46.915,76.914,49.936z"/>
	<path id="XMLID_1298_" style="fill:#815B48;" d="M158.884,58.785l-0.896,0.21c-2.689-3.006-5.543-5.831-8.539-8.469l3.56-3.125
		c3.229-2.834,8.266-1.883,10.235,1.934C165.215,53.152,163.069,57.802,158.884,58.785z"/>
</g>
<g>
</g>
<g>
</g>
<g>
</g>
<g>
</g>
<g>
</g>
<g>
</g>
<g>
</g>
<g>
</g>
<g>
</g>
<g>
</g>
<g>
</g>
<g>
</g>
<g>
</g>
<g>
</g>
<g>
</g>
</svg>
