<?xml version="1.0" encoding="iso-8859-1"?>
<!-- Generator: Adobe Illustrator 19.0.0, SVG Export Plug-In . SVG Version: 6.00 Build 0)  -->
<svg version="1.1" id="Layer_1" xmlns="http://www.w3.org/2000/svg" xmlns:xlink="http://www.w3.org/1999/xlink" x="0px" y="0px"
	 viewBox="0 0 460 460" style="enable-background:new 0 0 460 460;" xml:space="preserve">
<g id="XMLID_2437_">
	<path id="XMLID_916_" style="fill:#665749;" d="M10.754,154.524L30,270H0V155.414C0,152.424,2.424,150,5.414,150
		C8.06,150,10.319,151.913,10.754,154.524z"/>
	<path id="XMLID_1883_" style="fill:#665749;" d="M51.499,193.748c-0.906-2.264-3.098-3.748-5.536-3.748
		C42.67,190,40,192.67,40,195.963V240h30L51.499,193.748z"/>
	<path id="XMLID_914_" style="fill:#877667;" d="M27.896,256.75H10.104V152.561c0.366,0.587,0.634,1.245,0.754,1.963L27.896,256.75z
		"/>
	<path id="XMLID_1882_" style="fill:#84746A;" d="M410,270v70v30c0,5.523-4.477,10-10,10h-40h-13.596
		c-3.253,0-5.64-3.057-4.851-6.213l5.606-22.425c1.529-6.116,6.694-10.549,12.841-11.252V270H410z"/>
	<path id="XMLID_1881_" style="fill:#84746A;" d="M130,280v60.109c-6.146,0.704-11.311,5.136-12.841,11.252l-5.606,22.425
		c-0.789,3.156,1.598,6.213,4.851,6.213H130h40c5.523,0,10-4.477,10-10v-30v-60L130,280L130,280z"/>
	<path id="XMLID_1072_" style="fill:#84746A;" d="M90,140L90,140c5.523,0,10,4.477,10,10v30H80v-30C80,144.477,84.477,140,90,140z"
		/>
	<path id="XMLID_858_" style="fill:#B5A393;" d="M460,189.675V290v50v30c0,5.523-4.477,10-10,10h-40h-13.596
		c-3.253,0-5.64-3.057-4.851-6.213l5.606-22.425c1.529-6.116,6.694-10.548,12.841-11.252V290H230v50v30c0,5.523-4.477,10-10,10h-40
		h-13.596c-3.253,0-5.64-3.057-4.851-6.213l5.606-22.425c1.529-6.116,6.694-10.548,12.841-11.252V290h-50l-83.601,37.156
		C42.18,329.031,37.615,330,32.998,330l0,0C14.773,330,0,315.227,0,297.003V270l64.671-79.042
		c7.12-8.703,15.811-15.777,25.488-20.958H90v-30c0-5.523,4.477-10,10-10s10,4.477,10,10v22.411c6.485-1.582,13.193-2.411,20-2.411
		l0,0v-7.208C130,112.59,162.59,80,202.792,80l0,0c4.793,0,9.575,0.473,14.276,1.414l184.416,36.883
		C435.509,125.102,460,154.977,460,189.675z"/>
	<path id="XMLID_941_" style="fill:#84746A;" d="M176.536,284.151C160.75,275.746,150,259.132,150,240l0,0v-40
		c0-5.523-4.477-10-10-10s-10,4.477-10,10v40v10l0,0c0,16.365-18.5,40-40,40H34.082l-0.816-3.999
		C31.365,276.689,23.174,270,13.669,270H0v20v7.003C0,315.227,14.773,330,32.998,330c0.697,0,1.393-0.029,2.087-0.073
		c0.17-0.011,0.339-0.026,0.508-0.04c0.577-0.046,1.152-0.106,1.725-0.182c0.119-0.016,0.238-0.03,0.356-0.047
		c1.457-0.209,2.898-0.515,4.314-0.916l0,0c1.502-0.425,2.978-0.949,4.411-1.586L130,290v10h50v-10
		C180,287.564,178.686,285.296,176.536,284.151z"/>
	<path id="XMLID_1738_" style="fill:#84746A;" d="M410,288.181V290v10v20h-50v-20h-3.745c-5.617,11.822-17.657,20-31.617,20h-60
		c-17.632,0-32.212-13.04-34.639-30c0-1.311,0.902-2.434,2.173-2.755C271.156,277.368,300,242.054,300,200l0,0v-20
		c0-5.523,4.477-10,10-10s10,4.477,10,10l0,0C320,233.921,358.799,278.775,410,288.181z"/>
	<path id="XMLID_1659_" style="fill:#665749;" d="M33.016,286.001l0.734,3.599v0.4H19v-4.75c0-4.876,3.492-8.932,8.11-9.816
		C30.042,278.188,32.164,281.827,33.016,286.001z"/>
	<path id="XMLID_1869_" style="fill:#84746A;" d="M460,189.675V260c0,5.523-4.477,10-10,10l0,0v-90c0-4.618,3.135-8.495,7.39-9.644
		C459.09,176.533,460,183.014,460,189.675z"/>
	<path id="XMLID_1848_" style="fill:#665749;" d="M450,260c-5.523,0-10,4.477-10,10v20c11.046,0,20-8.954,20-20v-10H450z"/>
	<path id="XMLID_852_" style="fill:#AA9787;" d="M90,235c0,8.284-6.716,15-15,15s-15-6.716-15-15s6.716-15,15-15S90,226.716,90,235z
		"/>
	<path id="XMLID_1841_" style="fill:#665749;" d="M75,230c-2.761,0-5,2.239-5,5s2.239,5,5,5s5-2.239,5-5S77.761,230,75,230z"/>
</g>
<g>
</g>
<g>
</g>
<g>
</g>
<g>
</g>
<g>
</g>
<g>
</g>
<g>
</g>
<g>
</g>
<g>
</g>
<g>
</g>
<g>
</g>
<g>
</g>
<g>
</g>
<g>
</g>
<g>
</g>
</svg>
