<?xml version="1.0" encoding="iso-8859-1"?>
<!-- Generator: Adobe Illustrator 19.0.0, SVG Export Plug-In . SVG Version: 6.00 Build 0)  -->
<svg version="1.1" id="Layer_1" xmlns="http://www.w3.org/2000/svg" xmlns:xlink="http://www.w3.org/1999/xlink" x="0px" y="0px"
	 viewBox="0 0 460 460" style="enable-background:new 0 0 460 460;" xml:space="preserve">
<g id="XMLID_2422_">
	<path id="XMLID_3353_" style="fill:#896245;" d="M460,337.591V340c0,66.274-53.726,120-120,120H200V90h12.409
		c62.713,0,123.089,23.798,168.936,66.588l0,0C431.515,203.414,460,268.964,460,337.591z"/>
	<path id="XMLID_3376_" style="fill:#77563F;" d="M460,337.591V340c0,66.274-53.726,120-120,120H200V260v-20v-30v-20V90h12.409
		c44.849,0,88.5,12.177,126.5,34.762c-2.979,20.037-11.92,38.153-24.96,52.479c-4.495,4.938-0.882,12.777,5.795,12.759
		c0.217-0.001,0.434,0,0.651,0C342.33,190.094,360,208.063,360,230v30c0,0.141,0,0.282-0.001,0.423
		C359.917,282.206,377.323,300,399.106,300h58.018c0.849,5.526,1.503,11.094,1.976,16.693c0.01,0.113,0.019,0.226,0.029,0.339
		c0.17,2.053,0.318,4.109,0.437,6.17c0.028,0.475,0.051,0.951,0.076,1.426c0.091,1.733,0.169,3.468,0.223,5.207
		C459.948,332.415,460,335,460,337.591z"/>
	<path id="XMLID_933_" style="fill:#BA9E72;" d="M50,450v10H0l0,0c0-16.568,13.431-30,30-30C41.046,430,50,438.954,50,450z"/>
	<path id="XMLID_973_" style="fill:#A07D50;" d="M460,330v10v120c-20.035,0-38.089-8.43-50.849-21.92
		C389.604,451.886,365.75,460,340,460h-10H50c-11.046,0-20-8.954-20-20l0,0c0-38.66,31.34-70,70-70h230c0-22.091,17.909-40,40-40
		H460z"/>
	<path id="XMLID_936_" style="fill:#8E6E4A;" d="M460,420v40c-20.035,0-38.089-8.43-50.849-21.92v-0.014
		C389.608,451.877,365.762,460,340.01,460h-10h-280c-11.046,0-20-8.954-20-20l0,0c0-33.907,24.11-62.179,56.121-68.619
		c-0.35,0.78-0.687,1.809-1.009,3.035C79.057,397.491,96.766,420,120.625,420h157.042H460z"/>
	<path id="XMLID_815_" style="fill:#826341;" d="M460,340v120c-20.035,0-38.089-8.43-50.849-21.92
		C439.911,416.353,460,380.524,460,340z"/>
	<path id="XMLID_862_" style="fill:#BA9E72;" d="M30,320c-16.569,0-30,13.431-30,30l0,0v30c15.137,0,27.655-11.21,29.706-25.782
		c0.343-2.435,2.476-4.218,4.936-4.218H50v-30H30z"/>
	<path id="XMLID_1461_" style="fill:#A07D50;" d="M30,330L30,330c0-38.66,31.34-70,70-70h142.915c8.607-28.912,35.377-50,67.085-50
		l0,0c11.046,0,20,8.954,20,20v30l0,0c0,49.706-40.294,90-90,90l0,0H50C38.954,350,30,341.046,30,330z"/>
	<path id="XMLID_1460_" style="fill:#8E6E4A;" d="M30,330c0-24.941,13.055-46.821,32.693-59.219l0,0
		C60.952,276.89,60,283.332,60,290c0,11.046,8.954,20,20,20h190l0,0c20.348,0,39.117-6.756,54.192-18.143l0,0
		C311.327,325.838,278.488,350,240,350l0,0H50C38.954,350,30,341.046,30,330z"/>
	<path id="XMLID_3357_" style="fill:#A07D50;" d="M310,110L310,110c0,44.183-35.817,80-80,80h-60c-44.183,0-80-35.817-80-80l0,0
		C90,49.249,139.249,0,200,0l0,0C260.751,0,310,49.249,310,110z"/>
	<path id="XMLID_3271_" style="fill:#E5D3AC;" d="M270,155L270,155c0,19.33-15.67,35-35,35h-35h-35c-19.33,0-35-15.67-35-35l0,0
		c0-19.33,15.67-35,35-35h5c11.136,0,20.146-9.101,19.998-20.271C189.927,94.313,185.417,90,180,90h-43.279
		c-3.466,0-5.868-3.436-4.71-6.703C136.825,69.723,149.775,60,165,60c19.33,0,35,15.67,35,35c0-19.102,15.302-34.63,34.317-34.993
		c15.261-0.292,28.365,9.587,33.436,23.225c1.218,3.276-1.191,6.768-4.686,6.768H220c-5.416,0-9.927,4.313-9.998,9.729
		C209.854,110.899,218.864,120,230,120h5C254.33,120,270,135.67,270,155z"/>
	<path id="XMLID_1459_" style="fill:#D3B98D;" d="M240,160L240,160c0,16.569-13.431,30-30,30h-10h-10c-16.569,0-30-13.431-30-30l0,0
		c0-16.568,13.431-30,30-30h20C226.569,130,240,143.431,240,160z"/>
	<path id="XMLID_1458_" style="fill:#BA9E72;" d="M240,160c0,16.569-13.431,30-30,30h-10h-10c-16.569,0-30-13.431-30-30l40,10
		L240,160z"/>
	<path id="XMLID_1465_" style="fill:#C6AE83;" d="M200,170v20h-10c-16.569,0-30-13.431-30-30L200,170z"/>
	<path id="XMLID_3289_" style="fill:#75644C;" d="M219.915,131.685C219.057,141.94,210.477,150,200,150s-19.057-8.06-19.915-18.315
		C183.19,130.598,186.524,130,190,130h20C213.476,130,216.81,130.598,219.915,131.685z"/>
	<path id="XMLID_1343_" style="fill:#3A352E;" d="M230,105c0,2.761-2.239,5-5,5s-5-2.239-5-5s2.239-5,5-5S230,102.239,230,105z"/>
	<path id="XMLID_1334_" style="fill:#3A352E;" d="M175,100c-2.761,0-5,2.239-5,5s2.239,5,5,5s5-2.239,5-5S177.761,100,175,100z"/>
	<path id="XMLID_3616_" style="fill:#8E6E4A;" d="M250,25c0,13.807-22.386,25-50,25s-50-11.193-50-25s22.386-25,50-25
		S250,11.193,250,25z"/>
</g>
<g>
</g>
<g>
</g>
<g>
</g>
<g>
</g>
<g>
</g>
<g>
</g>
<g>
</g>
<g>
</g>
<g>
</g>
<g>
</g>
<g>
</g>
<g>
</g>
<g>
</g>
<g>
</g>
<g>
</g>
</svg>
