<?xml version="1.0" encoding="iso-8859-1"?>
<!-- Generator: Adobe Illustrator 19.0.0, SVG Export Plug-In . SVG Version: 6.00 Build 0)  -->
<svg version="1.1" id="Layer_1" xmlns="http://www.w3.org/2000/svg" xmlns:xlink="http://www.w3.org/1999/xlink" x="0px" y="0px"
	 viewBox="0 0 460 460" style="enable-background:new 0 0 460 460;" xml:space="preserve">
<g id="XMLID_2632_">
	<path id="XMLID_1024_" style="fill:#33474C;" d="M430,95v60h-60V95H430z"/>
	<path id="XMLID_902_" style="fill:#517482;" d="M277.806,131.414L270,154.833v35h-40v-32.929c0-1.326,0.527-2.598,1.464-3.536
		l19.299-19.299c5.941-5.941,14.007-9.266,22.412-9.237C276.54,124.845,278.87,128.221,277.806,131.414z"/>
	<path id="XMLID_1140_" style="fill:#80A6AF;" d="M370,235L370,235c-37.771,50.361-97.049,80-160,80h-43.96
		c-48.983,0-96.262-17.976-132.873-50.518L0,235H370z"/>
	<path id="XMLID_1077_" style="fill:#628C99;" d="M430,95v60v20c0,33.137-26.863,60-60,60l0,0c-0.115,0.154-0.23,0.307-0.346,0.46
		C350.762,260.499,321.032,275,289.666,275h-83.098c-31.696,0-62.255-11.018-86.558-30.934c-7.149-5.859-16.103-9.066-25.347-9.066
		H0v-20c0-33.137,26.863-60,60-60h250h60l0,0C403.137,155,430,128.137,430,95z"/>
	<path id="XMLID_1127_" style="fill:#517482;" d="M430,115v40v20c0,33.137-26.863,60-60,60c-0.115,0.154-0.23,0.307-0.346,0.46
		C350.762,260.499,321.032,275,289.666,275h-83.098c-31.696,0-62.255-11.018-86.558-30.934c-7.149-5.859-16.103-9.066-25.347-9.066
		H0c0-33.137,26.863-60,60-60h250h60C403.137,175,430,148.137,430,115z"/>
	<path id="XMLID_865_" style="fill:#445F68;" d="M430,155v20c0,33.137-26.863,60-60,60l0,0c-0.126,0.168-0.252,0.336-0.379,0.503
		C350.736,260.523,321.013,275,289.666,275h-83.098c-31.696,0-62.255-11.018-86.558-30.934c-7.149-5.859-16.103-9.066-25.347-9.066
		H0l0,0c0-11.046,8.954-20,20-20h74.664c9.243,0,18.197,3.208,25.347,9.066C144.313,243.982,174.873,255,206.568,255h83.098
		c31.347,0,61.07-14.477,79.955-39.497c0.126-0.167,0.253-0.335,0.379-0.503l0,0C403.137,215,430,188.137,430,155z"/>
	<path id="XMLID_2401_" style="fill:#364B51;" d="M155,225c-8.284,0-15-6.716-15-15s6.716-15,15-15s15,6.716,15,15
		S163.284,225,155,225z"/>
	<path id="XMLID_850_" style="fill:#80A6AF;" d="M160,210c0,2.761-2.239,5-5,5s-5-2.239-5-5s2.239-5,5-5S160,207.239,160,210z"/>
	<path id="XMLID_910_" style="fill:#445F68;" d="M460,45v20c0,16.569-13.431,30-30,30h-0.146c-10.128,0-19.052,6.242-22.997,15.57
		C400.784,124.926,386.569,135,370,135l0,0V95c-16.569,0-30-13.431-30-30V45h30c16.569,0,30,13.431,30,30c0-16.569,13.431-30,30-30
		H460z"/>
	<path id="XMLID_911_" style="fill:#517482;" d="M400,75h-30c-16.569,0-30-13.431-30-30h30C386.569,45,400,58.431,400,75z M430,45
		c-16.569,0-30,13.431-30,30h30c16.569,0,30-13.431,30-30H430z"/>
	<path id="XMLID_797_" style="fill:#33474C;" d="M337.46,242.607c-4.48,15.376-16.939,27.344-32.6,31.126
		c-5.232,0.831-10.556,1.267-15.93,1.267h-83.098c-16.693,0-33.069-3.06-48.383-8.862c-8.978-6.673-15.372-16.614-17.448-28.061
		c19.99,10.999,42.603,16.923,65.83,16.923h83.098C306.1,255,322.778,250.647,337.46,242.607z"/>
	<path id="XMLID_1873_" style="fill:#36525B;" d="M290,255l-32.724,130.896C253,403,237.631,415,220,415l0,0
		c-5.523,0-10-4.477-10-10V255H290z"/>
	<path id="XMLID_787_" style="fill:#517482;" d="M260,240v15l-22.724,90.896c-3.441,13.765-14.069,24.219-27.276,27.778V255v-15H260
		z"/>
</g>
<g>
</g>
<g>
</g>
<g>
</g>
<g>
</g>
<g>
</g>
<g>
</g>
<g>
</g>
<g>
</g>
<g>
</g>
<g>
</g>
<g>
</g>
<g>
</g>
<g>
</g>
<g>
</g>
<g>
</g>
</svg>
